HIERARCHY
ROOT SpineBase
{
  OFFSET 0.000000 0.000000 0.000000
  CHANNELS 6 Xposition Yposition Zposition Zrotation Xrotation Yrotation
  JOINT SpineMid
  {
    OFFSET 0.000000 31.639862 0.000000
    CHANNELS 3 Zrotation Xrotation Yrotation
    JOINT SpineShoulder
    {
      OFFSET -0.175867 23.602547 -1.078810
      CHANNELS 3 Zrotation Xrotation Yrotation
      JOINT Neck
      {
        OFFSET -0.073120 7.824735 -0.753904
        CHANNELS 3 Zrotation Xrotation Yrotation
        JOINT Head
        {
          OFFSET -6.291813 13.187232 1.168088
          CHANNELS 3 Zrotation Xrotation Yrotation
          End Site
          {
            OFFSET 0 0 0
          }
        }
      }
      JOINT ShoulderLeft
      {
        OFFSET -11.105849 -6.700479 15.002206
        CHANNELS 3 Zrotation Xrotation Yrotation
        JOINT ElbowLeft
        {
          OFFSET -0.525314 -28.632594 -1.629517
          CHANNELS 3 Zrotation Xrotation Yrotation
          JOINT WristLeft
          {
            OFFSET -1.279472 -21.192945 -2.794358
            CHANNELS 3 Zrotation Xrotation Yrotation
            JOINT HandLeft
            {
              OFFSET -0.305864 -4.965587 -2.686768
              CHANNELS 3 Zrotation Xrotation Yrotation
              JOINT HandTipLeft
              {
                OFFSET 0.740802 -5.202325 -0.294128
                CHANNELS 3 Zrotation Xrotation Yrotation
                End Site
                {
                  OFFSET 0 0 0
                }
              }
              JOINT ThumbLeft
              {
                OFFSET -2.601355 -0.010332 -1.010112
                CHANNELS 3 Zrotation Xrotation Yrotation
                End Site
                {
                  OFFSET 0 0 0
                }
              }
            }
          }
        }
      }
      JOINT ShoulderRight
      {
        OFFSET 11.769109 -3.276093 -8.705783
        CHANNELS 3 Zrotation Xrotation Yrotation
        JOINT ElbowRight
        {
          OFFSET 6.244150 -20.860693 -8.950577
          CHANNELS 3 Zrotation Xrotation Yrotation
          JOINT WristRight
          {
            OFFSET -1.296343 -23.952164 -4.608704
            CHANNELS 3 Zrotation Xrotation Yrotation
            JOINT HandRight
            {
              OFFSET -2.736781 -7.502816 -0.887088
              CHANNELS 3 Zrotation Xrotation Yrotation
              JOINT HandTipRight
              {
                OFFSET -0.559843 -6.334526 -0.566159
                CHANNELS 3 Zrotation Xrotation Yrotation
                End Site
                {
                  OFFSET 0 0 0
                }
              }
              JOINT ThumbRight
              {
                OFFSET -3.400197 0.507803 -0.274144
                CHANNELS 3 Zrotation Xrotation Yrotation
                End Site
                {
                  OFFSET 0 0 0
                }
              }
            }
          }
        }
      }
    }
  }
  JOINT HipLeft
  {
    OFFSET -5.352893 -0.512820 1.390223
    CHANNELS 3 Zrotation Xrotation Yrotation
    JOINT KneeLeft
    {
      OFFSET 4.519240 -35.862184 3.222760
      CHANNELS 3 Zrotation Xrotation Yrotation
      JOINT AnkleLeft
      {
        OFFSET 5.280202 -26.402892 3.425042
        CHANNELS 3 Zrotation Xrotation Yrotation
        JOINT FootLeft
        {
          OFFSET 9.341244 -1.977516 -12.278280
          CHANNELS 3 Zrotation Xrotation Yrotation
          End Site
          {
            OFFSET 0 0 0
          }
        }
      }
    }
  }
  JOINT HipRight
  {
    OFFSET 4.447150 2.122920 -8.693522
    CHANNELS 3 Zrotation Xrotation Yrotation
    JOINT KneeRight
    {
      OFFSET 6.970773 -32.052668 -1.811680
      CHANNELS 3 Zrotation Xrotation Yrotation
      JOINT AnkleRight
      {
        OFFSET 7.899208 -32.618891 3.338117
        CHANNELS 3 Zrotation Xrotation Yrotation
        JOINT FootRight
        {
          OFFSET -8.599834 -3.977085 -12.413990
          CHANNELS 3 Zrotation Xrotation Yrotation
          End Site
          {
            OFFSET 0 0 0
          }
        }
      }
    }
  }
}
MOTION
Frames: 16
Frame Time: 0.033333
35.664170 70.808200 353.871299 0.992486 -0.603635 51.501264 0.701423 0.667521 -51.463888 0.170451 0.613903 0.063556 6.799258 6.993625 2.477585 0.000000 0.000000 0.000000 -1.765102 -1.990401 -0.082186 -1.214258 2.480686 0.156088 15.899544 -10.502454 -6.008617 -21.885022 29.604522 13.993012 0.000000 0.000000 0.000000 0.000000 0.000000 0.000000 -4.477389 -3.787787 0.356337 -0.247589 0.507796 0.230739 8.862772 -22.788525 9.051841 3.132707 26.091121 -11.140054 0.000000 0.000000 0.000000 0.000000 0.000000 0.000000 -1.771132 0.853496 -51.719726 15.994121 34.259383 4.111521 -32.905256 -37.081158 -0.741711 0.000000 0.000000 0.000000 7.443047 3.644154 -50.350037 -0.091169 -6.202108 -0.717548 17.707342 -28.675666 -1.198585 0.000000 0.000000 0.000000
35.447187 70.874865 354.077198 0.892835 -0.456032 51.815510 0.792631 0.689292 -51.781826 0.163484 0.703018 0.060765 6.524909 6.653238 2.563064 0.000000 0.000000 0.000000 -1.691595 -2.312034 -0.084316 -1.215229 2.480957 0.156091 14.264884 -10.641858 -5.225026 -19.524586 26.199572 12.075659 0.000000 0.000000 0.000000 0.000000 0.000000 0.000000 -4.272851 -4.151197 0.272748 0.294333 0.781775 0.149916 7.137517 -22.669141 8.995061 5.458615 24.785912 -11.885181 0.000000 0.000000 0.000000 0.000000 0.000000 0.000000 -1.500789 0.675837 -51.995639 16.224698 34.903566 4.109870 -38.231930 -40.786997 6.617149 0.000000 0.000000 0.000000 7.207322 3.223982 -50.684348 0.135242 -5.691065 -0.558188 16.610653 -27.906576 -1.534254 0.000000 0.000000 0.000000
35.313088 70.987244 354.053134 0.797762 -0.186509 52.395038 0.803428 0.662029 -52.364297 0.137258 0.780152 0.055748 6.389787 6.658122 2.779826 0.000000 0.000000 0.000000 -1.587882 -2.650445 -0.083054 -1.215501 2.481029 0.156086 14.509432 -10.062831 -5.428835 -19.157563 25.113966 11.825927 0.000000 0.000000 0.000000 0.000000 0.000000 0.000000 -4.021259 -4.442356 0.217072 0.790284 0.722247 0.059192 5.624840 -20.651807 8.193631 4.889449 21.296873 -10.471749 0.000000 0.000000 0.000000 0.000000 0.000000 0.000000 -1.504651 0.372867 -52.562488 16.701912 35.889536 4.050192 -44.276987 -45.261773 12.597893 0.000000 0.000000 0.000000 6.391075 2.563412 -51.343970 0.505182 -4.696329 -0.324122 15.950429 -27.590550 -1.681345 0.000000 0.000000 0.000000
35.168076 71.152401 353.979533 0.737919 0.187467 52.698928 0.758505 0.663599 -52.671603 0.103688 0.861629 0.049551 6.194249 6.675717 3.056907 0.000000 0.000000 0.000000 -1.460293 -3.071358 -0.080805 -1.215960 2.481201 0.156083 14.805910 -16.017291 -4.597487 -20.175858 36.293774 14.047585 0.000000 0.000000 0.000000 0.000000 0.000000 0.000000 -3.883215 -4.936031 0.172318 1.356867 0.960658 -0.048372 4.425643 -18.201806 7.199709 4.897827 16.498743 -9.063493 0.000000 0.000000 0.000000 0.000000 0.000000 0.000000 -1.829458 -0.072488 -52.886672 17.468569 37.327757 3.897572 -51.393728 -52.913814 30.874064 0.000000 0.000000 0.000000 5.391428 1.929762 -51.741714 0.760569 -3.670866 -0.123520 17.951760 -30.448544 -3.459342 0.000000 0.000000 0.000000
35.165845 71.364151 353.863033 0.727871 0.636454 53.108972 0.683822 0.669320 -53.084338 0.078752 0.909860 0.045391 6.220564 6.558232 3.250340 0.000000 0.000000 0.000000 -1.369653 -3.512130 -0.082381 -1.216189 2.481327 0.156144 16.052288 -21.159657 -4.177940 -22.298637 43.004393 16.240276 0.000000 0.000000 0.000000 0.000000 0.000000 0.000000 -3.912114 -5.324478 0.212618 1.755979 0.985106 -0.185152 4.323090 -15.093560 5.951142 1.526634 12.108063 -6.389838 0.000000 0.000000 0.000000 0.000000 0.000000 0.000000 -2.221571 -0.397606 -53.313050 16.888011 36.874238 3.979283 -46.603310 -51.599758 43.749802 0.000000 0.000000 0.000000 3.965772 1.458850 -52.278202 1.322926 -2.331895 0.124888 15.547081 -27.792300 -3.037923 0.000000 0.000000 0.000000
35.357865 71.600809 353.599098 0.809681 1.211775 53.131684 0.571290 0.631464 -53.106156 0.076837 0.923394 0.048338 6.385607 6.175777 3.305337 0.000000 0.000000 0.000000 -1.414667 -3.987992 -0.100628 -1.216087 2.481318 0.156233 21.249433 -20.328354 -6.393061 -32.260569 43.196940 22.387983 0.000000 0.000000 0.000000 0.000000 0.000000 0.000000 -3.879760 -5.643516 0.196636 1.330948 0.772191 -0.116580 5.435314 -11.184606 4.266512 -2.855206 7.287043 -3.604864 0.000000 0.000000 0.000000 0.000000 0.000000 0.000000 -2.876305 -0.758998 -53.373852 17.181666 38.260022 3.963473 -48.274549 -54.276987 49.995819 0.000000 0.000000 0.000000 2.507611 1.187566 -52.404962 1.269646 -1.516848 0.161391 15.328866 -26.695005 -3.263811 0.000000 0.000000 0.000000
35.637907 71.845586 353.464549 1.169477 1.782358 53.717316 0.463014 0.646896 -53.688603 0.038880 0.889852 0.057113 6.542472 6.047129 3.408525 0.000000 0.000000 0.000000 -1.653641 -4.443898 -0.143331 -1.451499 2.111017 0.209747 27.449491 -18.818985 -9.391578 -40.127887 33.434781 24.848598 0.000000 0.000000 0.000000 0.000000 0.000000 0.000000 -3.812412 -5.850145 0.106816 0.319747 0.517679 0.101804 7.346558 -6.752285 2.201023 -6.831989 2.160076 -1.277008 0.000000 0.000000 0.000000 0.000000 0.000000 0.000000 -3.976936 -0.388746 -54.032185 18.858222 40.071504 3.796374 -51.573416 -55.241198 48.140758 0.000000 0.000000 0.000000 0.550656 1.491043 -53.111574 1.602188 -0.607583 0.198530 16.405754 -27.101506 -0.965629 0.000000 0.000000 0.000000
36.225472 72.077190 353.487133 1.327729 2.119957 54.554213 0.335760 0.656195 -54.528720 0.030660 0.802019 0.059511 7.156181 5.972114 3.366578 0.000000 0.000000 0.000000 -1.716530 -4.591883 -0.155183 -1.368034 2.212960 0.192594 31.039302 -17.808788 -11.225605 -39.557033 24.730679 23.241121 0.000000 0.000000 0.000000 0.000000 0.000000 0.000000 -3.626669 -5.727608 0.092056 -1.086401 0.248125 0.373666 9.899943 -4.156097 0.713414 -11.205861 -1.576522 0.192214 0.000000 0.000000 0.000000 0.000000 0.000000 0.000000 -4.045102 0.362157 -54.818991 18.549747 37.763226 4.072453 -48.300221 -51.930982 43.225444 0.000000 0.000000 0.000000 -0.040738 1.913771 -53.910931 1.980942 -0.667850 0.150821 15.895906 -26.294872 0.606532 0.000000 0.000000 0.000000
37.138564 72.288282 353.607613 1.406132 2.196882 55.285204 0.270664 0.627176 -55.259222 0.065716 0.679004 0.066041 7.820912 6.343918 3.345912 0.000000 0.000000 0.000000 -1.816819 -4.471796 -0.163264 -1.084637 2.659827 0.128110 32.806514 -17.104063 -12.125453 -43.466745 33.780409 26.712742 0.000000 0.000000 0.000000 0.000000 0.000000 0.000000 -3.667773 -5.356836 0.151728 -2.313907 0.199174 0.554192 12.951510 -4.026063 0.153764 -13.924631 -2.684829 0.729131 0.000000 0.000000 0.000000 0.000000 0.000000 0.000000 -3.379916 1.250617 -55.429369 16.971046 33.320822 4.447660 -38.079061 -41.816644 34.195686 0.000000 0.000000 0.000000 0.781773 2.748482 -54.412888 2.333022 -1.777726 -0.016070 17.818072 -28.946586 0.735184 0.000000 0.000000 0.000000
38.143731 72.460092 353.927860 1.495463 2.044069 55.975648 0.232961 0.718372 -55.953066 0.068598 0.603456 0.065392 8.027526 5.812240 3.011863 0.000000 0.000000 0.000000 -1.813580 -4.259874 -0.155184 -0.671854 3.337903 0.028857 32.753475 -16.227397 -12.218665 -40.629044 34.823407 25.503797 0.000000 0.000000 0.000000 0.000000 0.000000 0.000000 -3.731964 -4.836540 0.295292 -3.161697 0.252250 0.595715 15.665183 -6.283577 0.750397 -14.240792 -1.208937 0.502276 0.000000 0.000000 0.000000 0.000000 0.000000 0.000000 -1.987802 2.312880 -55.936373 14.611727 26.940083 4.591749 -28.008505 -32.271187 26.391583 0.000000 0.000000 0.000000 2.858496 4.127840 -54.721212 3.067136 -4.096519 -0.255947 16.931442 -29.003689 1.790642 0.000000 0.000000 0.000000
39.368714 72.711667 354.238512 0.952742 1.490569 56.387354 0.532546 0.778414 -56.370205 0.099038 0.551273 0.048323 7.718091 5.576148 2.884294 0.000000 0.000000 0.000000 -1.426385 -3.937522 -0.096017 -0.192025 4.135224 -0.092061 22.383912 -9.658029 -9.151236 -23.880960 34.143924 16.877729 0.000000 0.000000 0.000000 0.000000 0.000000 0.000000 -3.978100 -4.367296 0.655277 -3.368694 0.741145 0.428087 17.346877 -12.621567 3.456218 -14.398841 7.859845 -0.792081 0.000000 0.000000 0.000000 0.000000 0.000000 0.000000 -0.076639 2.865411 -56.194318 11.686318 19.597232 4.238248 -19.778179 -24.154881 22.761565 0.000000 0.000000 0.000000 7.069127 4.591636 -54.663315 3.688200 -7.237784 -0.281592 12.993214 -27.159595 3.363000 0.000000 0.000000 0.000000
41.007257 72.912578 353.804709 0.222889 1.355232 56.967998 0.608139 0.690705 -56.963371 0.142262 0.507390 0.023763 6.421292 4.854649 2.799258 0.000000 0.000000 0.000000 -0.865372 -3.774548 -0.021207 0.295482 4.948091 -0.220719 10.862681 -4.752831 -4.633376 -7.341279 32.196909 8.946000 0.000000 0.000000 0.000000 0.000000 0.000000 0.000000 -4.137104 -4.000011 1.086555 -2.939909 0.870503 0.083396 17.826700 -15.697642 4.851171 -15.196870 13.961308 -1.216607 0.000000 0.000000 0.000000 0.000000 0.000000 0.000000 0.499934 2.674584 -56.757943 8.840199 12.927491 3.392447 -14.070332 -17.626903 23.830273 0.000000 0.000000 0.000000 10.361840 3.928755 -54.832997 5.049065 -9.288985 0.229239 6.947757 -24.220449 5.298001 0.000000 0.000000 0.000000
42.774675 73.063842 352.772402 -0.509743 1.541240 57.845615 0.408789 0.793939 -57.871177 0.103141 0.468973 -0.024613 4.544842 3.953769 2.867760 0.000000 0.000000 0.000000 0.091997 -3.807358 0.096544 0.737396 5.686638 -0.342165 9.269759 -10.664819 -3.171050 -7.672169 43.297645 9.466668 0.000000 0.000000 0.000000 0.000000 0.000000 0.000000 -3.781688 -3.313490 1.687235 -2.687156 0.276102 -0.401593 17.355037 -15.165669 4.466683 -16.808936 16.315142 -0.542337 0.000000 0.000000 0.000000 0.000000 0.000000 0.000000 0.104867 1.711315 -57.704798 5.341466 7.311397 2.183261 -10.193317 -13.167160 30.018509 0.000000 0.000000 0.000000 12.666438 2.113313 -55.320160 6.635435 -10.213062 1.109649 0.234388 -21.211230 7.175384 0.000000 0.000000 0.000000
44.604368 73.040545 351.298066 -2.093735 1.506039 57.558884 0.505083 0.686015 -57.616627 0.149112 0.502887 -0.085582 1.499140 3.136984 3.143544 0.000000 0.000000 0.000000 1.456579 -3.831018 0.264784 1.087828 6.273046 -0.440372 5.772328 -13.915909 -1.387174 -1.758364 47.345317 6.226706 0.000000 0.000000 0.000000 0.000000 0.000000 0.000000 -3.821061 -2.996500 2.533309 -1.975503 -0.126716 -1.037683 16.753670 -15.518157 4.453417 -17.859726 19.955071 -0.055188 0.000000 0.000000 0.000000 0.000000 0.000000 0.000000 -0.593378 -0.301839 -57.633701 1.976037 3.811320 1.021670 -7.999135 -12.281805 41.691383 0.000000 0.000000 0.000000 14.995993 -0.997345 -54.528673 7.445380 -9.959436 1.975443 -5.615016 -18.774032 7.749275 0.000000 0.000000 0.000000
46.178632 72.911441 349.824125 -4.291209 1.121173 57.156481 0.596714 0.556474 -57.277286 0.116994 0.507568 -0.184426 -1.694808 2.650721 3.529175 0.000000 0.000000 0.000000 3.493126 -3.445682 0.509465 1.302050 6.636846 -0.499805 2.199641 -11.084378 -0.303754 4.970917 40.424767 2.688075 0.000000 0.000000 0.000000 0.000000 0.000000 0.000000 -3.815708 -2.780466 3.592618 -1.177680 -0.347955 -1.678694 17.046151 -15.708378 4.293024 -20.793099 22.036036 1.268288 0.000000 0.000000 0.000000 0.000000 0.000000 0.000000 -0.018476 -2.615920 -57.376301 -1.001973 1.529613 0.114372 -6.407985 -16.305274 58.427401 0.000000 0.000000 0.000000 17.450156 -5.066994 -53.538643 7.323554 -8.711337 2.611443 -14.063229 -12.792440 9.742534 0.000000 0.000000 0.000000
47.683441 72.377043 348.125632 -6.354305 0.887373 57.552808 0.623794 0.379423 -57.743199 0.145570 0.488392 -0.271909 -4.831545 2.534187 4.106133 0.000000 0.000000 0.000000 5.338873 -3.094581 0.719847 1.334090 6.707608 -0.505444 0.447998 -7.007741 0.101548 10.811935 24.840050 0.391412 0.000000 0.000000 0.000000 0.000000 0.000000 0.000000 -3.712005 -2.969785 4.388629 -1.089065 -0.500861 -1.992681 19.195221 -15.079721 3.724160 -26.572145 21.957861 3.581878 0.000000 0.000000 0.000000 0.000000 0.000000 0.000000 -0.909072 -4.701373 -58.257768 -1.547799 3.166842 0.300387 -4.356960 -24.996462 76.462450 0.000000 0.000000 0.000000 19.142774 -9.994407 -53.377107 5.747804 -6.809870 2.838155 -17.877202 -10.438936 11.024903 0.000000 0.000000 0.000000
